<svg aria-hidden="true" style="position: absolute; width: 0; height: 0; overflow: hidden;" version="1.1" xmlns="http://www.w3.org/2000/svg" xmlns:xlink="http://www.w3.org/1999/xlink">
<defs>
<symbol id="icon-email" viewBox="0 0 32 32">
<path fill="#f1f5f7" style="fill: var(--color1, #f1f5f7)" d="M4.815 4.785h22.369v22.429h-22.369v-22.429z"></path>
<path fill="#dce6ea" style="fill: var(--color2, #dce6ea)" d="M16 18.359l11.184 8.856v-17.484l-11.184 8.628z"></path>
<path fill="#f84437" style="fill: var(--color3, #f84437)" d="M28.116 4.785h-0.932l-11.184 8.856-11.185-8.856h-0.932c-1.543 0-2.796 1.256-2.796 2.804v16.822c0 1.547 1.253 2.804 2.796 2.804h0.932v-17.484l11.185 8.626 11.184-8.628v17.486h0.932c1.544 0 2.796-1.256 2.796-2.804v-16.822c0-1.548-1.253-2.804-2.796-2.804v0z"></path>
</symbol>
<symbol id="icon-Github" viewBox="0 0 32 32">
<path fill="#3e75c3" style="fill: var(--color4, #3e75c3)" d="M15.999 0.333c-8.835 0-15.999 7.191-15.999 16.064 0 7.096 4.584 13.117 10.943 15.241 0.8 0.148 1.092-0.349 1.092-0.774 0-0.381-0.014-1.392-0.022-2.732-4.451 0.971-5.39-2.154-5.39-2.154-0.727-1.855-1.776-2.349-1.776-2.349-1.453-0.997 0.11-0.977 0.11-0.977 1.605 0.113 2.45 1.655 2.45 1.655 1.428 2.455 3.745 1.746 4.657 1.334 0.145-1.038 0.559-1.746 1.016-2.148-3.553-0.405-7.288-1.783-7.288-7.938 0-1.754 0.623-3.188 1.647-4.311-0.165-0.406-0.714-2.039 0.156-4.251 0 0 1.344-0.432 4.4 1.646 1.277-0.357 2.645-0.534 4.006-0.541 1.359 0.007 2.728 0.185 4.006 0.541 3.054-2.078 4.395-1.646 4.395-1.646 0.873 2.212 0.324 3.844 0.159 4.251 1.026 1.123 1.645 2.557 1.645 4.311 0 6.17-3.741 7.529-7.305 7.926 0.574 0.496 1.086 1.476 1.086 2.975 0 2.148-0.020 3.879-0.020 4.407 0 0.43 0.288 0.93 1.1 0.772 6.353-2.129 10.933-8.145 10.933-15.239 0-8.873-7.164-16.064-16.001-16.064z"></path>
</symbol>
<symbol id="icon-tg" viewBox="0 0 32 32">
<path fill="#57b7eb" style="fill: var(--color5, #57b7eb)" d="M29 16c0 7.18-5.82 13-13 13s-13-5.82-13-13c0-7.18 5.82-13 13-13s13 5.82 13 13z"></path>
<path fill="#4891d3" style="fill: var(--color6, #4891d3)" d="M7.323 6.323c-2.066 2.302-3.323 5.343-3.323 8.677 0 7.175 5.825 13 13 13 3.334 0 6.375-1.258 8.677-3.323-2.381 2.653-5.835 4.323-9.677 4.323-7.175 0-13-5.825-13-13 0-3.841 1.67-7.296 4.323-9.677z"></path>
<path fill="#f9f6f9" style="fill: var(--color7, #f9f6f9)" d="M7.349 16.905c-0.203-0.061-0.346-0.243-0.356-0.454s0.114-0.407 0.309-0.487c3.332-1.372 12.097-4.981 14.854-6.117 0.169-0.069 0.362-0.041 0.505 0.073s0.21 0.297 0.178 0.477c-0.461 2.582-1.785 9.994-2.208 12.364-0.029 0.165-0.139 0.303-0.293 0.37s-0.329 0.053-0.471-0.038c-1.375-0.884-4.623-2.972-5.87-3.773-0.124-0.080-0.207-0.21-0.226-0.357s0.027-0.294 0.127-0.402c1.267-1.382 5.099-5.563 5.099-5.563s-6.591 4.12-7.808 4.88c-0.122 0.076-0.271 0.096-0.409 0.055-0.585-0.175-2.235-0.671-3.434-1.030z"></path>
<path fill="#000" style="fill: var(--color8, #000)" d="M17.573 14.187l-3.856 4.207c-0.149 0.163-0.22 0.384-0.191 0.603s0.152 0.415 0.338 0.535c1.246 0.802 4.494 2.89 5.87 3.774 0.211 0.136 0.476 0.157 0.706 0.056s0.395-0.309 0.439-0.556c0.423-2.37 1.747-9.783 2.208-12.364 0.048-0.27-0.055-0.543-0.268-0.716s-0.503-0.214-0.756-0.11c-2.757 1.135-11.522 4.745-14.854 6.117-0.293 0.121-0.479 0.413-0.463 0.73s0.229 0.59 0.534 0.681v0c1.198 0.36 2.848 0.855 3.434 1.030 0.207 0.062 0.43 0.032 0.613-0.082l6.248-3.905zM7.421 16.666c-0.101-0.030-0.173-0.122-0.178-0.227s0.056-0.203 0.154-0.244c3.332-1.372 12.097-4.981 14.854-6.117 0.084-0.034 0.181-0.021 0.252 0.037s0.105 0.149 0.089 0.239c-0.461 2.582-1.785 9.994-2.208 12.365-0.015 0.082-0.070 0.151-0.146 0.185s-0.165 0.026-0.235-0.019c-1.376-0.884-4.623-2.972-5.87-3.773-0.062-0.040-0.104-0.105-0.113-0.178s0.014-0.146 0.064-0.201c1.267-1.382 5.099-5.563 5.099-5.563 0.084-0.092 0.087-0.232 0.008-0.329s-0.218-0.118-0.325-0.052c0 0-6.591 4.12-7.808 4.88-0.061 0.038-0.136 0.048-0.204 0.027l-3.434-1.030z"></path>
<path fill="#000" style="fill: var(--color8, #000)" d="M16 2.75c-7.313 0-13.25 5.937-13.25 13.25s5.937 13.25 13.25 13.25c7.313 0 13.25-5.937 13.25-13.25s-5.937-13.25-13.25-13.25zM16 3.25c7.037 0 12.75 5.713 12.75 12.75s-5.713 12.75-12.75 12.75c-7.037 0-12.75-5.713-12.75-12.75s5.713-12.75 12.75-12.75z"></path>
</symbol>
<symbol id="icon-Whatsapp" viewBox="0 0 32 32">
<path fill="#eee" style="fill: var(--color9, #eee)" d="M11.422 25.624l-7.422 2.362 2.423-7.158c-0.407-0.747-0.729-1.539-0.958-2.359-0.278-0.995-0.419-2.023-0.419-3.057 0-3.040 1.21-5.923 3.366-8.062 2.163-2.146 5.067-3.335 8.114-3.335s5.948 1.191 8.11 3.337c2.156 2.14 3.364 5.024 3.364 8.064s-1.209 5.922-3.365 8.061c-2.163 2.146-5.066 3.335-8.112 3.335-0.966 0-1.929-0.119-2.865-0.359-0.772-0.198-1.522-0.476-2.236-0.829z"></path>
<path fill="#54cc61" style="fill: var(--color10, #54cc61)" d="M27.085 15.415c0-2.895-1.182-5.517-3.093-7.414s-4.55-3.071-7.465-3.071c-2.917 0-5.558 1.173-7.47 3.070s-3.095 4.518-3.095 7.412c0 0.971 0.134 1.914 0.385 2.81 0.249 0.89 0.614 1.733 1.075 2.511l-1.974 5.832 6.058-1.928c0.745 0.401 1.542 0.715 2.379 0.929 0.843 0.216 1.727 0.33 2.639 0.33 2.916 0 5.556-1.173 7.467-3.070s3.095-4.518 3.095-7.411z"></path>
<path fill="#fffffe" style="fill: var(--color11, #fffffe)" d="M14.809 12.553c-0.046-0.093-0.314-0.74-0.561-1.336-0.158-0.381-0.308-0.744-0.338-0.814-0.278-0.662-0.585-0.642-0.82-0.627-0.015 0.001-0.030 0.002-0.050 0.002-0.082 0-0.163-0.005-0.247-0.010-0.105-0.007-0.213-0.014-0.316-0.014-0.136 0-0.322 0.028-0.518 0.12-0.145 0.068-0.295 0.17-0.432 0.321-0.020 0.022-0.035 0.037-0.051 0.055-0.326 0.343-1.037 1.090-1.037 2.525 0 1.505 1.085 2.937 1.245 3.147l-0.001 0 0.001 0.002 0.002 0.002c0.006 0.008 0.029 0.042 0.063 0.092 0.401 0.586 2.244 3.282 5.045 4.376 2.542 0.992 3.001 0.88 3.412 0.781 0.070-0.017 0.138-0.033 0.212-0.040 0.333-0.031 0.877-0.259 1.335-0.579 0.38-0.265 0.712-0.601 0.838-0.954 0.113-0.316 0.177-0.609 0.207-0.85 0.043-0.351 0.009-0.626-0.055-0.733l-0.001-0.001c-0.097-0.16-0.265-0.239-0.516-0.358-0.044-0.021-0.092-0.043-0.137-0.065l0-0c-0.174-0.088-0.774-0.382-1.287-0.624-0.332-0.157-0.626-0.291-0.743-0.333-0.164-0.059-0.307-0.104-0.46-0.086-0.174 0.020-0.325 0.109-0.466 0.322l-0-0c-0.071 0.106-0.195 0.265-0.331 0.432-0.215 0.264-0.472 0.56-0.582 0.684v0.001c-0.047 0.053-0.087 0.082-0.127 0.087-0.055 0.007-0.13-0.016-0.235-0.067-0.067-0.033-0.132-0.061-0.212-0.096-0.406-0.175-1.196-0.516-2.097-1.314-0.322-0.285-0.606-0.597-0.843-0.89-0.383-0.473-0.642-0.895-0.745-1.073-0.081-0.139 0.009-0.23 0.092-0.313l-0-0c0.092-0.092 0.197-0.217 0.301-0.343 0.048-0.057 0.095-0.115 0.153-0.181l0.001-0.001c0.141-0.164 0.2-0.284 0.279-0.445 0.014-0.028 0.028-0.058 0.043-0.086l0.001-0.001c0.069-0.14 0.087-0.273 0.074-0.398-0.012-0.116-0.051-0.22-0.098-0.313l0-0z"></path>
</symbol>
</defs>
</svg>
