<svg aria-hidden="true" style="position: absolute; width: 0; height: 0; overflow: hidden;" version="1.1" xmlns="http://www.w3.org/2000/svg" xmlns:xlink="http://www.w3.org/1999/xlink">
<defs>
<symbol id="1-food-bank" viewBox="0 0 32 32">
<path fill="#fff" style="fill: var(--color1, #fff)" d="M16.223 7.333l8 6v12h-16v-12l8-6zM16.223 4l-10.667 8v16h21.333v-16l-10.667-8zM15.556 12.667v4h-0.667v-4h-1.333v4h-0.667v-4h-1.333v4c0 1.107 0.893 2 2 2v5.333h1.333v-5.333c1.107 0 2-0.893 2-2v-4h-1.333zM17.556 15.333v4h1.333v4.667h1.333v-11.333c-1.467 0-2.667 1.2-2.667 2.667z"></path>
</symbol>
<symbol id="2-emoji-high-contrast_beans" viewBox="0 0 32 32">
<path fill="#fff" style="fill: var(--color1, #fff)" d="M13.989 20.51c-0.058 0.015-0.113 0.042-0.161 0.079s-0.088 0.082-0.119 0.135c-0.030 0.052-0.050 0.11-0.058 0.17s-0.004 0.121 0.011 0.179c0.125 0.452 0.097 0.932-0.079 1.366s-0.49 0.798-0.894 1.036c-0.087 0.050-0.154 0.128-0.19 0.221-0.035 0.089-0.042 0.188-0.018 0.281s0.075 0.177 0.148 0.24c0.073 0.063 0.163 0.101 0.259 0.11s0.192-0.012 0.275-0.060c0.575-0.341 1.021-0.861 1.272-1.48 0.253-0.619 0.294-1.305 0.118-1.95-0.032-0.117-0.109-0.217-0.214-0.278-0.052-0.031-0.11-0.052-0.17-0.060s-0.12-0.004-0.179 0.012z"></path>
<path fill="#fff" style="fill: var(--color1, #fff)" d="M10.72 30.427c0.848 0.426 1.796 0.61 2.742 0.532 1.245-0.096 2.438-0.538 3.445-1.276s1.788-1.742 2.255-2.901l1.86-4.589c0.472-1.154 0.612-2.417 0.404-3.647s-0.755-2.376-1.58-3.311c-0.576-0.66-1.311-1.163-2.136-1.46s-1.711-0.38-2.576-0.24c-0.852 0.131-1.656 0.476-2.339 1.002s-1.219 1.218-1.561 2.009l-0.053 0.117c-0.451 1.102-0.527 2.322-0.217 3.472 0.058 0.21 0.046 0.434-0.036 0.636s-0.228 0.372-0.416 0.482c-1.020 0.601-1.812 1.522-2.254 2.62l-0.052 0.126c-0.31 0.807-0.41 1.68-0.289 2.536s0.458 1.668 0.979 2.358c0.48 0.646 1.105 1.171 1.824 1.533zM12.776 21.519c0.246-0.605 0.288-1.274 0.12-1.905l-0.013 0.003c-0.194-0.716-0.152-1.475 0.12-2.165l0.048-0.1c0.204-0.486 0.53-0.912 0.947-1.235s0.91-0.533 1.432-0.609c0.532-0.087 1.078-0.037 1.585 0.145s0.96 0.491 1.315 0.898c0.58 0.657 0.965 1.463 1.111 2.328s0.047 1.752-0.285 2.563l-1.86 4.588c-0.328 0.813-0.876 1.518-1.582 2.037s-1.544 0.83-2.418 0.898c-0.536 0.043-1.074-0.051-1.564-0.273s-0.915-0.565-1.236-0.997c-0.316-0.408-0.524-0.89-0.602-1.4s-0.026-1.032 0.153-1.517l0.055-0.132c0.28-0.701 0.784-1.29 1.434-1.675 0.56-0.337 0.994-0.846 1.24-1.452zM25.077 8.14c-0.030-0.065-0.075-0.123-0.131-0.167s-0.123-0.075-0.193-0.089c-0.119-0.023-0.243 0.001-0.345 0.067-0.051 0.033-0.094 0.076-0.128 0.126s-0.058 0.106-0.070 0.165c-0.14 0.663-0.060 1.332 0.224 1.94 0.283 0.606 0.758 1.102 1.352 1.41 0.108 0.057 0.234 0.069 0.351 0.032s0.214-0.117 0.271-0.225c0.057-0.108 0.069-0.234 0.032-0.351s-0.117-0.214-0.225-0.271c-0.415-0.216-0.748-0.563-0.947-0.987s-0.253-0.902-0.154-1.36c0.017-0.098 0.005-0.2-0.036-0.291z"></path>
<path fill="#fff" style="fill: var(--color1, #fff)" d="M25.909 18.337h0.127c0.855 0.002 1.696-0.209 2.449-0.613s1.394-0.989 1.865-1.702c0.482-0.717 0.774-1.546 0.847-2.407s-0.073-1.727-0.427-2.515l-0.048-0.1c-0.501-1.079-1.345-1.962-2.4-2.512-0.194-0.101-0.349-0.263-0.442-0.461s-0.119-0.42-0.073-0.634c0.247-1.165 0.104-2.378-0.407-3.454l-0.050-0.1c-0.383-0.775-0.957-1.44-1.668-1.932s-1.536-0.794-2.397-0.879c-0.871-0.093-1.751 0.038-2.558 0.38s-1.513 0.883-2.052 1.573c-0.773 0.98-1.257 2.156-1.398 3.396s0.068 2.495 0.603 3.623l2.111 4.48c0.528 1.131 1.362 2.091 2.408 2.773s2.262 1.057 3.51 1.084zM21.357 3.319c0.433-0.21 0.909-0.319 1.39-0.319 0.591-0.002 1.17 0.163 1.672 0.476s0.904 0.761 1.162 1.292l0.011 0.024c0.324 0.681 0.416 1.45 0.26 2.188-0.138 0.64-0.062 1.307 0.216 1.899s0.745 1.076 1.326 1.377c0.688 0.364 1.235 0.947 1.552 1.658 0.219 0.48 0.311 1.008 0.265 1.534s-0.226 1.031-0.523 1.466c-0.299 0.447-0.706 0.812-1.183 1.061s-1.009 0.373-1.547 0.361c-0.877-0.019-1.731-0.282-2.466-0.761s-1.321-1.153-1.692-1.948l-2.11-4.479c-0.375-0.792-0.522-1.674-0.424-2.545s0.438-1.698 0.981-2.387c0.297-0.38 0.676-0.686 1.11-0.897zM9.404 7.016c0.051-0.050 0.112-0.088 0.18-0.11s0.139-0.030 0.21-0.021c0.122 0.016 0.231 0.080 0.298 0.182 0.074 0.097 0.106 0.219 0.090 0.34-0.090 0.662-0.395 1.276-0.868 1.748-0.472 0.473-1.086 0.778-1.748 0.868-0.061 0.010-0.123 0.008-0.183-0.006s-0.117-0.040-0.167-0.077c-0.050-0.037-0.092-0.083-0.123-0.136s-0.052-0.112-0.061-0.173c-0.008-0.061-0.004-0.123 0.012-0.183s0.044-0.115 0.082-0.164c0.038-0.049 0.086-0.089 0.14-0.119s0.114-0.049 0.175-0.055c0.464-0.062 0.895-0.274 1.227-0.605s0.544-0.762 0.605-1.227c0.015-0.099 0.061-0.191 0.131-0.262z"></path>
<path fill="#fff" style="fill: var(--color1, #fff)" d="M4.775 16.613c1.184 0.398 2.456 0.456 3.671 0.168s2.325-0.912 3.204-1.799l3.5-3.5c0.886-0.88 1.508-1.989 1.796-3.204s0.23-2.486-0.166-3.67c-0.275-0.833-0.758-1.582-1.403-2.177s-1.43-1.016-2.283-1.223c-0.841-0.21-1.723-0.203-2.561 0.022s-1.605 0.658-2.229 1.261l-0.090 0.093c-0.829 0.836-1.364 1.919-1.525 3.085-0.029 0.216-0.129 0.417-0.283 0.571s-0.354 0.254-0.57 0.284c-1.177 0.159-2.268 0.702-3.105 1.544l-0.086 0.089c-0.6 0.623-1.031 1.388-1.254 2.223s-0.228 1.714-0.016 2.553c0.207 0.852 0.628 1.636 1.223 2.28s1.343 1.126 2.176 1.4zM8.67 5.948c0.104-0.749 0.45-1.442 0.985-1.976l0.050-0.053c0.378-0.367 0.845-0.631 1.354-0.766s1.045-0.136 1.556-0.003c0.524 0.129 1.006 0.388 1.401 0.754s0.692 0.827 0.861 1.339c0.278 0.831 0.319 1.724 0.117 2.577s-0.639 1.633-1.262 2.251l-3.5 3.5c-0.618 0.622-1.397 1.059-2.25 1.261s-1.745 0.162-2.577-0.117c-0.512-0.168-0.972-0.465-1.338-0.86s-0.624-0.878-0.751-1.402c-0.133-0.523-0.126-1.072 0.018-1.592s0.422-0.993 0.806-1.373c0.53-0.538 1.224-0.884 1.973-0.983 0.648-0.087 1.249-0.384 1.711-0.846s0.759-1.063 0.846-1.711z"></path>
</symbol>
<symbol id="3-emoji-high-contrast_cook" viewBox="0 0 32 32">
<path fill="#fff" style="fill: var(--color1, #fff)" d="M15.742 6.030v-2.4c0-0.25 0.2-0.46 0.46-0.46 0.25 0 0.46 0.2 0.46 0.46v2.4h-0.92zM13.612 6.030h-0.91l-0.8-2.28c-0.1-0.28 0.11-0.57 0.41-0.57 0.18 0 0.35 0.12 0.41 0.29l0.89 2.56zM18.782 6.030h0.91l0.8-2.28c0.1-0.28-0.11-0.57-0.41-0.57-0.18 0-0.35 0.12-0.41 0.29l-0.89 2.56zM12.716 8.768c-0.057 0-0.113-0.018-0.159-0.051s-0.082-0.080-0.1-0.134c-0.019-0.054-0.020-0.112-0.004-0.167s0.049-0.103 0.094-0.138c0.553-0.387 1.231-0.553 1.9-0.465 0.044 0.005 0.087 0.021 0.123 0.047s0.067 0.059 0.087 0.099c0.021 0.040 0.031 0.084 0.031 0.128s-0.011 0.089-0.032 0.128c-0.026 0.047-0.066 0.086-0.114 0.111s-0.103 0.034-0.156 0.027c-0.526-0.064-1.058 0.062-1.5 0.355-0.049 0.038-0.109 0.059-0.171 0.060zM19.702 8.768c-0.060 0.001-0.119-0.019-0.167-0.056-0.443-0.291-0.974-0.417-1.5-0.355-0.036 0.005-0.073 0.003-0.109-0.006s-0.069-0.025-0.098-0.048c-0.029-0.022-0.053-0.050-0.072-0.082s-0.030-0.067-0.034-0.104c-0.004-0.036-0.001-0.073 0.009-0.109s0.027-0.068 0.051-0.096 0.052-0.052 0.084-0.069c0.032-0.017 0.068-0.028 0.105-0.031 0.669-0.084 1.345 0.082 1.9 0.465 0.045 0.035 0.078 0.084 0.094 0.138s0.015 0.113-0.004 0.167c-0.019 0.054-0.054 0.101-0.101 0.134s-0.102 0.051-0.159 0.050zM13.772 9.19c-0.67 0-1.23 0.46-1.38 1.080-0.050 0.17 0.090 0.34 0.27 0.34h0.44c-0.036-0.135-0.041-0.277-0.014-0.414s0.085-0.267 0.171-0.378c0.085-0.111 0.195-0.201 0.32-0.263s0.263-0.095 0.403-0.095c0.14 0 0.278 0.033 0.403 0.095s0.235 0.152 0.32 0.263 0.143 0.24 0.171 0.378c0.027 0.137 0.022 0.279-0.014 0.414h0.070c0.15 0 0.26-0.13 0.23-0.28-0.12-0.65-0.7-1.14-1.39-1.14zM18.642 9.19c0.67 0 1.23 0.46 1.38 1.080 0.040 0.18-0.090 0.35-0.27 0.35h-0.44c0.020-0.080 0.030-0.16 0.030-0.24 0-0.5-0.41-0.91-0.91-0.91-0.14 0-0.278 0.033-0.403 0.095s-0.235 0.152-0.32 0.263c-0.085 0.111-0.143 0.24-0.171 0.378s-0.022 0.279 0.014 0.414h-0.070c-0.035 0.001-0.070-0.006-0.101-0.021s-0.060-0.036-0.082-0.063c-0.022-0.027-0.038-0.059-0.046-0.093s-0.008-0.069-0.001-0.103c0.13-0.66 0.7-1.15 1.39-1.15z"></path>
<path fill="#fff" style="fill: var(--color1, #fff)" d="M13.982 9.85c0.090-0.001 0.178 0.022 0.256 0.065s0.144 0.107 0.19 0.184 0.072 0.164 0.074 0.254c0.002 0.090-0.019 0.178-0.061 0.257h-0.92c-0.042-0.080-0.063-0.169-0.060-0.259s0.029-0.178 0.076-0.254c0.012 0.019 0.029 0.036 0.048 0.048s0.041 0.020 0.064 0.024c0.023 0.003 0.046 0.002 0.068-0.005s0.042-0.017 0.060-0.032c0.017-0.015 0.031-0.033 0.041-0.054s0.015-0.043 0.015-0.066c0-0.023-0.005-0.046-0.014-0.066s-0.023-0.039-0.040-0.055c0.064-0.027 0.134-0.041 0.204-0.040zM18.432 9.85c-0.062-0.001-0.125 0.010-0.183 0.032 0.019 0.015 0.035 0.034 0.046 0.056s0.016 0.046 0.016 0.070c-0 0.024-0.006 0.048-0.016 0.070s-0.026 0.041-0.046 0.056c-0.019 0.015-0.042 0.025-0.066 0.030s-0.049 0.004-0.072-0.002c-0.024-0.006-0.046-0.017-0.064-0.033s-0.033-0.036-0.043-0.058c-0.060 0.088-0.093 0.192-0.092 0.298 0 0.090 0.030 0.17 0.060 0.24h0.92c0.040-0.070 0.060-0.15 0.060-0.24 0-0.29-0.23-0.52-0.52-0.52zM16.212 13.66c-0.54 0-1.050-0.13-1.48-0.35-0.15-0.080-0.3 0.090-0.21 0.23 0.36 0.55 0.98 0.92 1.69 0.92s1.33-0.37 1.69-0.92c0.090-0.14-0.070-0.3-0.21-0.23-0.44 0.22-0.94 0.35-1.48 0.35zM15.362 12l0.53-1.71c0.12-0.37 0.65-0.37 0.76 0l0.53 1.71c0.11 0.35-0.15 0.7-0.52 0.7h-0.78c-0.37 0-0.63-0.35-0.52-0.7z"></path>
<path fill="#fff" style="fill: var(--color1, #fff)" d="M10.792 1h10.82c2.582 0 3.866 3.118 2.047 4.937l-0.477 0.477v0.589c0.006 0.229-0.047 0.441-0.139 0.626-0.007 0.144-0.019 0.287-0.035 0.429l-0.038 0.624c0.482 0.483 0.782 1.15 0.782 1.888 0.001 0.667-0.249 1.31-0.7 1.802v0.488c-0 0.687-0.224 1.356-0.636 1.906-0.111 0.386-0.265 0.749-0.461 1.089l0.657 0.476 0.116 0.075c0.065-0.224 0.146-0.443 0.242-0.656 0.237-0.528 0.623-0.976 1.109-1.29s1.054-0.481 1.633-0.479c0.58-0.001 1.147 0.166 1.634 0.481s0.872 0.764 1.109 1.293c0.28 0.629 0.424 1.31 0.423 1.999s-0.149 1.369-0.433 1.996c-0.219 0.492-0.557 0.912-0.994 1.219-0.011 0.009-0.020 0.020-0.027 0.032l-0.001 0.002-0.001 0.002v1.132c0.985 0.124 1.75 0.966 1.75 1.984v4.99c0 0.573-0.278 1.050-0.62 1.363-0.34 0.311-0.812 0.527-1.33 0.527h-22c-0.265 0-0.52-0.105-0.707-0.293s-0.293-0.442-0.293-0.707v-3.55c-0.002-1.766 0.388-3.511 1.141-5.109s1.851-3.009 3.214-4.132h0.001c0.337-0.278 0.702-0.549 1.071-0.79l0.905-0.664c-0.117-0.215-0.217-0.439-0.302-0.672-0.569-0.578-0.91-1.369-0.91-2.223v-0.559c-0.397-0.465-0.637-1.071-0.637-1.731-0.001-0.368 0.075-0.733 0.223-1.070s0.364-0.64 0.634-0.89l-0.037-0.564c-0.005-0.057-0.010-0.115-0.013-0.174-0.188-0.233-0.3-0.53-0.3-0.852v-0.616l-0.467-0.467c-1.819-1.819-0.536-4.937 2.047-4.937zM22.245 4.523c0.561-0.561 0.164-1.523-0.633-1.523h-10.82c-0.797 0-1.194 0.962-0.633 1.523l0.76 0.76c0.188 0.187 0.293 0.442 0.293 0.707v0.51h9.97v-0.51c0-0.152 0.035-0.301 0.101-0.438s0.163-0.256 0.282-0.349l0.68-0.68zM15.312 16.47h1.906c0.835 0.001 1.643-0.3 2.274-0.848s1.043-1.304 1.16-2.131l0.361-5.78 0.003-0.017c0.008-0.065 0.015-0.129 0.020-0.194h-9.541c0.003 0.128 0.011 0.255 0.022 0.382l0.002 0.023 0.073 1.122c0.003 0.046 0.003 0.092 0 0.138l0.286 4.325c0.027 0.196 0.070 0.389 0.13 0.577 0.028 0.055 0.051 0.113 0.069 0.172l0.037 0.115c0.266 0.628 0.711 1.164 1.28 1.54s1.236 0.577 1.918 0.576zM10.4 18.328c-0.191 0.137-0.374 0.278-0.551 0.423-1.136 0.936-2.050 2.111-2.677 3.443s-0.952 2.785-0.95 4.256v2.55h16.518c0.021-0.181 0.076-0.356 0.164-0.515-0.119-0.207-0.182-0.442-0.182-0.681s0.062-0.474 0.18-0.681c-0.119-0.209-0.182-0.445-0.181-0.686s0.065-0.476 0.187-0.684c-0.123-0.219-0.184-0.467-0.176-0.718 0.016-0.645 0.501-1.198 1.136-1.267 0.044-0.012 0.089-0.018 0.134-0.018h0.49v-2.817c-0.001-0.083-0.022-0.164-0.061-0.237s-0.096-0.135-0.164-0.181l-0.006-0.005-0.007-0.004c-0.356-0.259-0.64-0.604-0.826-1.003-0.032-0.068-0.061-0.137-0.089-0.207-0.161-0.040-0.309-0.12-0.432-0.232-0.289-0.263-0.593-0.509-0.91-0.736h-4.302c0.345 0.24 0.626 0.561 0.821 0.933s0.296 0.787 0.296 1.207v1.67c-0.691 0-1.354-0.274-1.843-0.762s-0.765-1.151-0.767-1.842c-0.002 0.691-0.277 1.354-0.767 1.842s-1.152 0.762-1.843 0.762v-1.67c0-0.885 0.442-1.668 1.117-2.14h-4.309zM27.172 25.59v-0.84h-3.065c-0.035 0.007-0.070 0.011-0.105 0.011-0.12 0-0.266 0.115-0.27 0.3v0.005c-0.002 0.057 0.009 0.113 0.032 0.165s0.058 0.098 0.102 0.134c0.062 0.048 0.112 0.109 0.146 0.179s0.051 0.148 0.050 0.226c-0.001 0.078-0.021 0.155-0.057 0.224s-0.089 0.129-0.152 0.174c-0.041 0.032-0.074 0.073-0.097 0.12s-0.034 0.099-0.033 0.151c0 0.135 0.060 0.225 0.12 0.266 0.067 0.045 0.121 0.106 0.159 0.177s0.058 0.15 0.059 0.23c0.001 0.081-0.017 0.16-0.054 0.232s-0.090 0.134-0.155 0.181c-0.041 0.032-0.074 0.074-0.097 0.121s-0.034 0.099-0.033 0.152c0 0.134 0.060 0.224 0.12 0.265 0.066 0.045 0.121 0.105 0.159 0.176s0.059 0.149 0.060 0.229c0.001 0.080-0.016 0.159-0.052 0.231s-0.088 0.134-0.152 0.181c-0.041 0.031-0.073 0.072-0.093 0.119h3.408v-3.41zM25.712 16.15c-0.405 0-0.764 0.236-0.923 0.593-0.14 0.314-0.212 0.654-0.212 0.997s0.072 0.683 0.212 0.996c0.159 0.358 0.518 0.594 0.923 0.594s0.764-0.236 0.923-0.593c0.282-0.63 0.282-1.361 0.002-1.99-0.082-0.177-0.212-0.327-0.376-0.432s-0.354-0.163-0.549-0.165z"></path>
</symbol>
</defs>
</svg>
