<svg aria-hidden="true" style="position: absolute; width: 0; height: 0; overflow: hidden;" version="1.1" xmlns="http://www.w3.org/2000/svg" xmlns:xlink="http://www.w3.org/1999/xlink">
<defs>
<symbol id="icon-star" viewBox="0 0 34 32">
<path d="M16.827 25.71l10.42 6.288-2.775-11.857 9.202-7.964-12.116-1.018-4.731-11.158-4.731 11.158-12.096 1.018 9.182 7.964-2.755 11.857 10.4-6.288z"></path>
</symbol>
<symbol id="icon-star_outline" viewBox="0 0 32 32">
<path d="M29.329 12.31l-9.592-0.822-3.745-8.834-3.745 8.849-9.592 0.806 7.285 6.305-2.181 9.371 8.233-4.962 8.233 4.962-2.165-9.371 7.269-6.305zM15.992 20.527l-5.009 3.018 1.327-5.705-4.425-3.84 5.847-0.506 2.26-5.373 2.276 5.389 5.847 0.506-4.425 3.84 1.327 5.705-5.025-3.034z"></path>
</symbol>
</defs>
</svg>
