<svg aria-hidden="true" style="position: absolute; width: 0; height: 0; overflow: hidden;" version="1.1" xmlns="http://www.w3.org/2000/svg" xmlns:xlink="http://www.w3.org/1999/xlink">
<defs>
<symbol id="icon-apple" viewBox="0 0 95 32">
<path fill="#fff" style="fill: var(--color1, #fff)" d="M5.189 0.216h84.757c2.746 0 4.973 2.226 4.973 4.973v21.622c0 2.747-2.226 4.973-4.973 4.973h-84.757c-2.747 0-4.973-2.226-4.973-4.973v-21.622c0-2.747 2.226-4.973 4.973-4.973z"></path>
<path fill="#000" style="fill: var(--color2, #000)" d="M18.339 21.968c-0.705 0.683-1.479 0.575-2.218 0.251-0.787-0.333-1.509-0.346-2.335 0-1.038 0.445-1.587 0.316-2.205-0.251-3.52-3.628-3.001-9.146 0.995-9.349 0.973 0.052 1.648 0.532 2.218 0.575 0.852-0.173 1.665-0.67 2.573-0.605 1.090 0.086 1.911 0.519 2.452 1.297-2.249 1.349-1.717 4.311 0.346 5.142-0.411 1.081-0.947 2.154-1.834 2.945l0.009-0.004zM14.72 12.575c-0.108-1.609 1.198-2.932 2.698-3.062 0.208 1.859-1.687 3.243-2.698 3.062z"></path>
<path fill="#050505" style="fill: var(--color3, #050505)" d="M27.373 7.546q0.125 0.104 0.203 0.255h0.597q-0.108-0.264-0.29-0.458-0.112-0.117-0.255-0.208-0.091-0.056-0.19-0.099-0.303-0.138-0.662-0.138-0.277 0-0.519 0.087-0.134 0.043-0.255 0.112-0.164 0.091-0.298 0.216-0.151 0.143-0.259 0.333-0.043 0.074-0.078 0.147-0.125 0.294-0.125 0.64 0 0.355 0.13 0.649 0.030 0.073 0.073 0.143 0.112 0.195 0.268 0.342 0.13 0.121 0.285 0.208 0.104 0.056 0.208 0.099 0.268 0.099 0.571 0.099t0.567-0.108q0.073-0.030 0.147-0.069 0.208-0.112 0.368-0.277 0.087-0.091 0.156-0.19 0.108-0.16 0.173-0.337 0.056-0.147 0.078-0.307v-0.389h-1.656v0.393h1.129q-0.048 0.307-0.216 0.515-0.043 0.052-0.095 0.099-0.039 0.035-0.087 0.069-0.229 0.156-0.562 0.156-0.264 0-0.476-0.104-0.030-0.017-0.056-0.030-0.087-0.052-0.156-0.112-0.125-0.112-0.212-0.272-0.13-0.246-0.13-0.575 0-0.324 0.13-0.566 0.082-0.156 0.208-0.268 0.073-0.065 0.16-0.117 0.026-0.013 0.056-0.030 0.212-0.104 0.476-0.104 0.272 0 0.476 0.117 0.065 0.035 0.121 0.082zM39.001 9.89q0.251 0.086 0.528 0.086 0.29 0 0.545-0.095 0.121-0.043 0.229-0.104 0.169-0.095 0.303-0.225 0.147-0.138 0.251-0.324 0.043-0.073 0.078-0.151 0.13-0.294 0.13-0.644t-0.13-0.644q-0.035-0.074-0.078-0.143-0.104-0.182-0.246-0.32-0.134-0.134-0.307-0.229-0.112-0.065-0.233-0.104-0.255-0.095-0.541-0.095-0.277 0-0.519 0.087-0.134 0.043-0.255 0.112-0.164 0.091-0.298 0.216-0.151 0.143-0.259 0.333-0.043 0.074-0.078 0.147-0.125 0.294-0.125 0.64 0 0.35 0.125 0.64 0.035 0.078 0.078 0.156 0.112 0.19 0.268 0.337 0.13 0.121 0.29 0.212 0.121 0.069 0.246 0.112zM29.237 8.221v-0.886h1.168v-0.402h-1.661v3.014h1.661v-0.406h-1.168v-0.917h1.038v-0.402h-1.038zM43.524 9.946h0.493v-3.014h-0.493v2.244l-1.488-2.244h-0.493v3.014h0.493v-2.249l1.488 2.249zM32.951 7.338v-0.402h-2.093v0.402h0.804v2.608h0.493v-2.608h0.796zM35.066 9.946v-3.010h-0.493v3.010h0.493zM37.656 7.338v-0.402h-2.093v0.402h0.804v2.608h0.493v-2.608h0.796zM39.983 9.449q-0.203 0.095-0.454 0.095-0.259 0-0.467-0.099-0.035-0.017-0.065-0.035-0.078-0.043-0.143-0.104-0.134-0.117-0.225-0.285-0.13-0.251-0.13-0.588 0-0.333 0.13-0.579 0.091-0.169 0.221-0.285 0.069-0.056 0.147-0.099 0.026-0.017 0.056-0.035 0.212-0.104 0.476-0.104 0.255 0 0.467 0.104 0.030 0.013 0.061 0.035 0.082 0.043 0.151 0.104 0.13 0.117 0.216 0.281 0.13 0.246 0.13 0.579 0 0.337-0.13 0.588-0.087 0.164-0.216 0.281-0.069 0.061-0.151 0.108-0.035 0.022-0.074 0.039z"></path>
<path fill="#050505" style="fill: var(--color3, #050505)" d="M48.752 22.486v-7.68h-1.453v7.68h1.453zM60.195 22.301q0.605 0.255 1.367 0.255 0.796 0 1.375-0.294 0.515-0.259 0.809-0.675 0.039-0.061 0.074-0.117 0.156-0.259 0.234-0.541 0.069-0.259 0.069-0.541 0-0.679-0.32-1.090-0.242-0.311-0.558-0.506-0.099-0.065-0.212-0.117-0.445-0.208-1.15-0.415-0.519-0.16-0.804-0.277-0.285-0.121-0.476-0.311-0.078-0.073-0.121-0.16-0.074-0.143-0.074-0.324 0-0.329 0.16-0.532 0.043-0.056 0.095-0.099 0.013-0.013 0.026-0.022 0.251-0.195 0.653-0.195 0.467 0 0.757 0.225 0.013 0.009 0.026 0.017 0.16 0.134 0.242 0.303 0.065 0.143 0.074 0.316h1.6q-0.048-0.631-0.355-1.081-0.169-0.246-0.419-0.441-0.004 0-0.009-0.004-0.696-0.541-1.812-0.541-0.748 0-1.328 0.255-0.458 0.203-0.757 0.541-0.078 0.091-0.147 0.195-0.056 0.087-0.104 0.177-0.216 0.415-0.216 0.943 0 0.683 0.316 1.094 0.242 0.316 0.562 0.506 0.095 0.056 0.195 0.104 0.441 0.203 1.15 0.411 0.515 0.143 0.813 0.268 0.294 0.117 0.493 0.324 0.056 0.061 0.095 0.13 0.104 0.169 0.104 0.398 0 0.216-0.091 0.389-0.074 0.143-0.203 0.251-0.29 0.247-0.8 0.247-0.467 0-0.748-0.229-0.017-0.017-0.035-0.030-0.065-0.061-0.121-0.134-0.169-0.233-0.195-0.575h-1.557q0.009 0.506 0.216 0.912 0.061 0.125 0.147 0.242 0.065 0.087 0.138 0.169 0.324 0.363 0.822 0.579zM27.351 21.103h2.884l0.48 1.384h1.535l-2.608-7.256h-1.686l-2.608 7.256h1.526l0.476-1.384zM67.070 20.709v-2.781h1.284v-1.194h-1.284v-1.423h-1.462v1.423h-0.688v1.194h0.688v2.768q0 0.869 0.432 1.315 0.458 0.476 1.405 0.476h0.908v-1.228h-0.67q-0.333 0-0.476-0.125-0.138-0.134-0.138-0.424zM35.451 16.908q-0.489 0.264-0.774 0.657v-0.83h-1.449v8.489h1.449v-3.559q0.303 0.393 0.787 0.653 0.48 0.259 1.116 0.259 0.476 0 0.891-0.156 0.229-0.087 0.441-0.216 0.138-0.087 0.259-0.19 0.415-0.342 0.683-0.865 0.35-0.679 0.35-1.561t-0.35-1.552q-0.259-0.502-0.662-0.83-0.134-0.112-0.281-0.199-0.199-0.121-0.407-0.203-0.432-0.164-0.925-0.164-0.618 0-1.107 0.255-0.009 0.009-0.022 0.013zM42.486 16.908q-0.489 0.264-0.77 0.657v-0.83h-1.453v8.489h1.453v-3.559q0.298 0.393 0.783 0.653t1.116 0.259q0.476 0 0.895-0.156 0.225-0.087 0.437-0.216 0.138-0.087 0.264-0.19 0.415-0.342 0.679-0.865 0.35-0.679 0.35-1.561t-0.35-1.552q-0.259-0.502-0.662-0.83-0.134-0.112-0.281-0.199-0.195-0.121-0.407-0.203-0.432-0.164-0.925-0.164-0.618 0-1.107 0.255-0.009 0.009-0.022 0.013zM55.49 20.043q0.039-0.247 0.039-0.558 0-0.817-0.342-1.457-0.009-0.017-0.017-0.035-0.182-0.329-0.441-0.584-0.246-0.242-0.566-0.415-0.056-0.035-0.117-0.061-0.605-0.294-1.349-0.294-0.83 0-1.475 0.35-0.017 0.009-0.030 0.017-0.277 0.151-0.497 0.359-0.311 0.285-0.523 0.675-0.359 0.675-0.359 1.565 0 0.887 0.368 1.561 0.203 0.376 0.502 0.657 0.233 0.221 0.528 0.385 0.082 0.048 0.173 0.091 0.592 0.277 1.315 0.277 0.869 0 1.509-0.385 0.112-0.069 0.221-0.147 0.394-0.298 0.644-0.683 0.203-0.316 0.316-0.683h-1.57q-0.16 0.32-0.419 0.497-0.298 0.199-0.731 0.199-0.359 0-0.649-0.147-0.16-0.078-0.298-0.208-0.069-0.061-0.125-0.13-0.268-0.333-0.307-0.848h4.203zM70.69 22.322q0.579 0.255 1.267 0.255 0.713 0 1.306-0.264 0.112-0.048 0.216-0.104 0.32-0.173 0.575-0.411 0.29-0.272 0.502-0.631 0.039-0.061 0.069-0.125 0.333-0.631 0.333-1.436 0-0.826-0.342-1.47-0.026-0.043-0.048-0.082-0.208-0.359-0.497-0.631-0.251-0.238-0.567-0.411-0.138-0.078-0.281-0.134-0.562-0.238-1.224-0.238t-1.228 0.238q-0.143 0.061-0.277 0.134-0.307 0.164-0.553 0.393-0.298 0.277-0.515 0.649-0.017 0.035-0.039 0.069-0.346 0.649-0.346 1.483 0 0.882 0.372 1.552l0.004 0.009q0.212 0.376 0.515 0.662 0.238 0.221 0.532 0.381 0.108 0.061 0.225 0.112zM85.522 20.043q0.043-0.247 0.043-0.558 0-0.817-0.342-1.457-0.009-0.017-0.017-0.035-0.186-0.329-0.441-0.584-0.251-0.242-0.567-0.415-0.061-0.035-0.121-0.061-0.601-0.294-1.345-0.294-0.835 0-1.475 0.35-0.017 0.009-0.030 0.017-0.277 0.151-0.502 0.359-0.307 0.285-0.519 0.675-0.363 0.675-0.363 1.565 0 0.887 0.368 1.561 0.208 0.376 0.502 0.657 0.238 0.221 0.528 0.385 0.087 0.048 0.177 0.091 0.592 0.277 1.315 0.277 0.869 0 1.509-0.385 0.112-0.069 0.221-0.147 0.389-0.298 0.644-0.683 0.199-0.316 0.311-0.683h-1.565q-0.16 0.32-0.419 0.497-0.298 0.199-0.731 0.199-0.363 0-0.649-0.147-0.164-0.078-0.303-0.208-0.065-0.061-0.121-0.13-0.268-0.333-0.311-0.848h4.203zM77.898 17.133q-0.242 0.208-0.419 0.493v-0.891h-1.453v5.751h1.453v-2.867q0-0.8 0.346-1.12 0.35-0.324 1.034-0.324h0.385v-1.522q-0.515 0-0.925 0.203-0.052 0.026-0.108 0.056-0.169 0.095-0.311 0.221zM28.791 16.908l1.051 3.031h-2.097l1.046-3.031zM53.868 18.469q0.151 0.259 0.156 0.601h-2.729q0.069-0.497 0.35-0.804 0.048-0.056 0.099-0.104 0.117-0.104 0.255-0.177 0.285-0.151 0.653-0.151 0.407 0 0.718 0.169 0.134 0.069 0.246 0.169 0.156 0.134 0.251 0.298zM83.905 18.469q0.147 0.259 0.156 0.601h-2.729q0.069-0.497 0.346-0.804 0.048-0.056 0.104-0.104 0.117-0.104 0.251-0.177 0.29-0.151 0.657-0.151 0.402 0 0.718 0.169 0.13 0.069 0.246 0.169 0.151 0.134 0.251 0.298zM72.337 21.263q-0.186 0.048-0.381 0.048-0.346 0-0.623-0.134-0.225-0.108-0.411-0.307-0.406-0.441-0.406-1.263 0-0.791 0.394-1.228 0.013-0.013 0.026-0.030 0.199-0.208 0.441-0.316 0.272-0.125 0.601-0.125 0.324 0 0.592 0.121 0.255 0.108 0.463 0.32 0.022 0.026 0.048 0.052 0.381 0.437 0.381 1.206 0 0.553-0.208 0.938-0.164 0.307-0.419 0.493-0.065 0.043-0.134 0.082-0.177 0.095-0.363 0.143zM37.505 18.69q0.216 0.381 0.216 0.899 0 0.528-0.216 0.912-0.164 0.303-0.419 0.497-0.065 0.052-0.138 0.095-0.173 0.099-0.355 0.156-0.195 0.052-0.398 0.052-0.173 0-0.337-0.039-0.212-0.052-0.407-0.164-0.069-0.039-0.134-0.091-0.255-0.19-0.424-0.493-0.216-0.385-0.216-0.908 0-0.515 0.216-0.899 0.173-0.311 0.432-0.502 0.061-0.048 0.125-0.082 0.195-0.117 0.407-0.164 0.164-0.039 0.337-0.039 0.225 0 0.432 0.061 0.164 0.048 0.32 0.134 0.069 0.039 0.134 0.087 0.255 0.186 0.424 0.489zM44.545 18.69q0.212 0.381 0.212 0.899 0 0.528-0.212 0.912-0.169 0.303-0.419 0.497-0.069 0.052-0.143 0.095-0.169 0.099-0.355 0.156-0.19 0.052-0.398 0.052-0.173 0-0.337-0.039-0.212-0.052-0.407-0.164-0.069-0.039-0.134-0.091-0.255-0.19-0.424-0.493-0.212-0.385-0.212-0.908 0-0.515 0.212-0.899 0.173-0.311 0.432-0.502 0.061-0.048 0.125-0.082 0.195-0.117 0.407-0.164 0.164-0.039 0.337-0.039 0.225 0 0.432 0.061 0.169 0.048 0.32 0.134 0.069 0.039 0.134 0.087 0.255 0.186 0.428 0.489z"></path>
</symbol>
<symbol id="icon-google" viewBox="0 0 95 32">
<path fill="#fff" style="fill: var(--color1, #fff)" d="M5.189 0.216h84.757c2.746 0 4.973 2.226 4.973 4.973v21.622c0 2.747-2.226 4.973-4.973 4.973h-84.757c-2.747 0-4.973-2.226-4.973-4.973v-21.622c0-2.747 2.226-4.973 4.973-4.973z"></path>
<path fill="#ea4335" style="fill: var(--color4, #ea4335)" d="M13.358 15.594l-7.243 7.589c0.082 0.29 0.229 0.553 0.428 0.778 0.199 0.221 0.45 0.398 0.726 0.51s0.579 0.16 0.878 0.138c0.298-0.022 0.588-0.112 0.848-0.259l8.147-4.644-3.784-4.112z"></path>
<path fill="#fbbc04" style="fill: var(--color5, #fbbc04)" d="M20.683 14.305l-3.524-2.019-3.965 3.481 3.983 3.931 3.494-1.998c0.311-0.16 0.571-0.407 0.752-0.705s0.277-0.64 0.277-0.99c0-0.35-0.095-0.696-0.277-0.995s-0.441-0.541-0.752-0.705h0.013z"></path>
<path fill="#4285f4" style="fill: var(--color6, #4285f4)" d="M6.115 8.783c-0.043 0.164-0.065 0.333-0.061 0.497v13.405c0 0.169 0.022 0.337 0.061 0.497l7.494-7.395-7.494-7.005z"></path>
<path fill="#34a853" style="fill: var(--color7, #34a853)" d="M13.414 15.983l3.745-3.697-8.138-4.662c-0.307-0.177-0.653-0.272-1.012-0.272-0.878-0.004-1.652 0.579-1.894 1.427l7.299 7.204z"></path>
<path fill="#050505" style="fill: var(--color3, #050505)" d="M25.725 7.546q0.121 0.104 0.203 0.255h0.592q-0.104-0.264-0.285-0.458-0.117-0.117-0.259-0.208-0.091-0.056-0.19-0.099-0.298-0.138-0.662-0.138-0.272 0-0.519 0.087-0.13 0.043-0.255 0.112-0.164 0.091-0.294 0.216-0.151 0.143-0.264 0.333-0.043 0.074-0.073 0.147-0.13 0.294-0.13 0.64 0 0.355 0.13 0.649 0.035 0.073 0.073 0.143 0.112 0.195 0.268 0.342 0.13 0.121 0.29 0.208 0.099 0.056 0.208 0.099 0.264 0.099 0.567 0.099 0.307 0 0.567-0.108 0.078-0.030 0.147-0.069 0.212-0.112 0.368-0.277 0.087-0.091 0.156-0.19 0.112-0.16 0.173-0.337 0.056-0.147 0.078-0.307v-0.389h-1.656v0.393h1.129q-0.043 0.307-0.212 0.515-0.043 0.052-0.095 0.099-0.043 0.035-0.091 0.069-0.229 0.156-0.562 0.156-0.264 0-0.476-0.104-0.030-0.017-0.056-0.030-0.082-0.052-0.156-0.112-0.125-0.112-0.212-0.272-0.13-0.246-0.13-0.575 0-0.324 0.13-0.566 0.087-0.156 0.208-0.268 0.073-0.065 0.16-0.117 0.026-0.013 0.056-0.030 0.212-0.104 0.476-0.104 0.272 0 0.48 0.117 0.065 0.035 0.121 0.082zM37.353 9.89q0.246 0.086 0.523 0.086 0.29 0 0.549-0.095 0.117-0.043 0.225-0.104 0.169-0.095 0.303-0.225 0.147-0.138 0.255-0.324 0.043-0.073 0.074-0.151 0.13-0.294 0.13-0.644t-0.13-0.644q-0.035-0.074-0.074-0.143-0.104-0.182-0.246-0.32-0.138-0.134-0.311-0.229-0.112-0.065-0.229-0.104-0.255-0.095-0.545-0.095-0.272 0-0.519 0.087-0.13 0.043-0.255 0.112-0.164 0.091-0.294 0.216-0.151 0.143-0.264 0.333-0.043 0.074-0.074 0.147-0.13 0.294-0.13 0.64 0 0.35 0.125 0.64 0.035 0.078 0.078 0.156 0.112 0.19 0.268 0.337 0.13 0.121 0.29 0.212 0.121 0.069 0.251 0.112zM27.589 8.221v-0.886h1.168v-0.402h-1.661v3.014h1.661v-0.406h-1.168v-0.917h1.038v-0.402h-1.038zM41.872 9.946h0.493v-3.014h-0.493v2.244l-1.483-2.244h-0.493v3.014h0.493v-2.249l1.483 2.249zM31.304 7.338v-0.402h-2.097v0.402h0.804v2.608h0.493v-2.608h0.8zM33.418 9.946v-3.010h-0.493v3.010h0.493zM36.009 7.338v-0.402h-2.097v0.402h0.804v2.608h0.493v-2.608h0.8zM38.335 9.449q-0.208 0.095-0.458 0.095-0.255 0-0.463-0.099-0.035-0.017-0.069-0.035-0.078-0.043-0.143-0.104-0.134-0.117-0.225-0.285-0.13-0.251-0.13-0.588 0-0.333 0.13-0.579 0.091-0.169 0.225-0.285 0.065-0.056 0.143-0.099 0.026-0.017 0.056-0.035 0.212-0.104 0.476-0.104 0.259 0 0.467 0.104 0.035 0.013 0.065 0.035 0.082 0.043 0.151 0.104 0.13 0.117 0.212 0.281 0.134 0.246 0.134 0.579 0 0.337-0.134 0.588-0.082 0.164-0.212 0.281-0.069 0.061-0.151 0.108-0.039 0.022-0.074 0.039z"></path>
<path fill="#050505" style="fill: var(--color3, #050505)" d="M53.846 22.486v-7.68h-1.449v7.68h1.449zM71.918 22.486v-7.68h-1.453v7.68h1.453zM28.796 16.925q0.233 0.203 0.393 0.493h1.669q-0.203-0.644-0.61-1.12-0.272-0.316-0.636-0.553-0.13-0.086-0.268-0.164-0.813-0.432-1.855-0.432-0.796 0-1.479 0.277-0.208 0.082-0.407 0.195-0.407 0.225-0.727 0.536-0.355 0.342-0.605 0.783-0.078 0.134-0.143 0.277-0.337 0.739-0.337 1.635 0 0.921 0.355 1.669 0.056 0.125 0.125 0.242 0.242 0.424 0.579 0.752 0.329 0.329 0.752 0.562 0.16 0.091 0.333 0.164 0.713 0.307 1.561 0.307t1.544-0.32q0.073-0.035 0.143-0.069 0.584-0.303 0.999-0.757 0.121-0.134 0.229-0.277 0.333-0.45 0.502-0.951 0.078-0.221 0.121-0.45v-1.267h-3.922v1.111h2.491q-0.138 0.662-0.536 1.081-0.073 0.078-0.16 0.147-0.065 0.056-0.134 0.104-0.497 0.337-1.224 0.337-0.675 0-1.185-0.29-0.19-0.108-0.346-0.247-0.268-0.242-0.45-0.584-0.285-0.541-0.285-1.267 0-0.705 0.281-1.241 0.186-0.363 0.476-0.614 0.138-0.121 0.303-0.216 0.061-0.035 0.125-0.065 0.454-0.225 1.021-0.225 0.579 0 1.016 0.238 0.156 0.087 0.29 0.199zM69.362 18.054q0.073-0.277 0.073-0.571 0-0.528-0.199-0.96-0.043-0.099-0.099-0.195-0.052-0.091-0.112-0.173-0.285-0.385-0.774-0.623-0.588-0.294-1.431-0.294h-2.664v7.248h1.449v-2.785h1.215q0.895 0 1.479-0.307 0.519-0.277 0.796-0.709 0.035-0.056 0.065-0.112 0.138-0.251 0.203-0.519zM67.65 18.257q-0.29 0.272-0.891 0.272h-1.155v-2.106h1.155q0.657 0 0.951 0.324 0.234 0.264 0.234 0.735 0 0.407-0.199 0.666-0.043 0.056-0.095 0.108zM33.401 22.322q0.575 0.255 1.267 0.255 0.709 0 1.306-0.264 0.108-0.048 0.212-0.104 0.32-0.173 0.579-0.411 0.29-0.272 0.502-0.631 0.035-0.061 0.069-0.125 0.333-0.631 0.333-1.436 0-0.826-0.346-1.47-0.022-0.043-0.048-0.082-0.203-0.359-0.493-0.631-0.255-0.238-0.571-0.411-0.134-0.078-0.277-0.134-0.562-0.238-1.224-0.238-0.666 0-1.228 0.238-0.143 0.061-0.281 0.134-0.303 0.164-0.549 0.393-0.298 0.277-0.515 0.649-0.022 0.035-0.039 0.069-0.346 0.649-0.346 1.483 0 0.882 0.372 1.552 0 0.004 0.004 0.009 0.212 0.376 0.515 0.662 0.238 0.221 0.528 0.381 0.112 0.061 0.229 0.112zM40.022 22.322q0.579 0.255 1.267 0.255 0.714 0 1.306-0.264 0.108-0.048 0.216-0.104 0.316-0.173 0.575-0.411 0.29-0.272 0.502-0.631 0.039-0.061 0.069-0.125 0.333-0.631 0.333-1.436 0-0.826-0.342-1.47-0.026-0.043-0.048-0.082-0.208-0.359-0.497-0.631-0.251-0.238-0.566-0.411-0.138-0.078-0.281-0.134-0.562-0.238-1.224-0.238t-1.228 0.238q-0.143 0.061-0.281 0.134-0.303 0.164-0.549 0.393-0.298 0.277-0.515 0.649-0.017 0.035-0.039 0.069-0.346 0.649-0.346 1.483 0 0.882 0.372 1.552 0.004 0.004 0.004 0.009 0.212 0.376 0.515 0.662 0.238 0.221 0.528 0.381 0.112 0.061 0.229 0.112zM48.739 16.899q-0.489-0.259-1.129-0.259-0.489 0-0.912 0.16-0.221 0.082-0.424 0.208-0.125 0.073-0.238 0.169-0.428 0.337-0.705 0.865-0.346 0.675-0.346 1.548 0 0.882 0.346 1.561 0.268 0.519 0.679 0.861 0.13 0.108 0.272 0.195 0.255 0.16 0.536 0.251 0.372 0.121 0.791 0.121 0.614 0 1.098-0.255 0.013-0.004 0.026-0.013 0.493-0.272 0.774-0.675v0.891q0 0.744-0.372 1.124-0.013 0.009-0.022 0.022-0.099 0.091-0.208 0.164-0.342 0.216-0.822 0.216-0.536 0-0.917-0.233-0.251-0.156-0.385-0.376-0.069-0.117-0.108-0.251h-1.444q0.056 0.528 0.307 0.934 0.216 0.355 0.579 0.623 0.787 0.571 2.011 0.571 0.912 0 1.557-0.372 0.419-0.238 0.701-0.584 0.151-0.19 0.264-0.411 0.324-0.627 0.324-1.427v-5.79h-1.466v0.817q-0.009-0.009-0.013-0.022-0.281-0.385-0.757-0.631zM60.584 20.043q0.039-0.247 0.039-0.558 0-0.817-0.337-1.457-0.009-0.017-0.022-0.035-0.182-0.329-0.441-0.584-0.246-0.242-0.562-0.415-0.061-0.035-0.121-0.061-0.605-0.294-1.349-0.294-0.83 0-1.475 0.35-0.013 0.009-0.030 0.017-0.272 0.151-0.497 0.359-0.307 0.285-0.519 0.675-0.363 0.675-0.363 1.565 0 0.887 0.368 1.561 0.208 0.376 0.502 0.657 0.233 0.221 0.528 0.385 0.087 0.048 0.173 0.091 0.592 0.277 1.315 0.277 0.873 0 1.509-0.385 0.117-0.069 0.225-0.147 0.389-0.298 0.64-0.683 0.203-0.316 0.316-0.683h-1.57q-0.156 0.32-0.415 0.497-0.298 0.199-0.735 0.199-0.359 0-0.649-0.147-0.16-0.078-0.298-0.208-0.065-0.061-0.121-0.13-0.268-0.333-0.311-0.848h4.203zM73.323 18.041q-0.35 0.675-0.35 1.548 0 0.882 0.35 1.561 0.272 0.536 0.705 0.882 0.112 0.095 0.238 0.173 0.246 0.151 0.51 0.242 0.385 0.13 0.813 0.13 0.644 0 1.137-0.264t0.774-0.67v0.843h1.466v-5.751h-1.466v0.817q-0.29-0.393-0.774-0.649-0.484-0.264-1.129-0.264-0.484 0-0.912 0.16-0.216 0.082-0.419 0.208-0.125 0.073-0.242 0.169-0.428 0.337-0.701 0.865zM82.326 25.202l3.559-8.467h-1.548l-1.505 4.017-1.479-4.017h-1.635l2.305 5.604-1.245 2.863h1.548zM58.962 18.469q0.151 0.259 0.156 0.601h-2.729q0.074-0.497 0.35-0.804 0.048-0.056 0.104-0.104 0.117-0.104 0.251-0.177 0.285-0.151 0.653-0.151 0.407 0 0.722 0.169 0.13 0.069 0.246 0.169 0.151 0.134 0.246 0.298zM35.049 21.263q-0.186 0.048-0.381 0.048-0.346 0-0.627-0.134-0.225-0.108-0.407-0.307-0.407-0.441-0.407-1.263 0-0.791 0.394-1.228 0.013-0.013 0.026-0.030 0.199-0.208 0.437-0.316 0.277-0.125 0.605-0.125 0.32 0 0.592 0.121 0.251 0.108 0.458 0.32 0.026 0.026 0.052 0.052 0.381 0.437 0.381 1.206 0 0.553-0.208 0.938-0.169 0.307-0.424 0.493-0.061 0.043-0.13 0.082-0.177 0.095-0.363 0.143zM41.669 21.263q-0.186 0.048-0.381 0.048-0.346 0-0.623-0.134-0.229-0.108-0.411-0.307-0.407-0.441-0.407-1.263 0-0.791 0.394-1.228 0.013-0.013 0.026-0.030 0.199-0.208 0.441-0.316 0.272-0.125 0.601-0.125 0.324 0 0.592 0.121 0.255 0.108 0.463 0.32 0.022 0.026 0.048 0.052 0.381 0.437 0.381 1.206 0 0.553-0.208 0.938-0.164 0.307-0.419 0.493-0.065 0.043-0.134 0.082-0.177 0.095-0.363 0.143zM49.302 18.703q0.208 0.381 0.208 0.904 0 0.532-0.208 0.912-0.147 0.264-0.363 0.441-0.091 0.078-0.195 0.138-0.182 0.104-0.376 0.156-0.186 0.048-0.385 0.048-0.164 0-0.32-0.039-0.221-0.048-0.419-0.169-0.065-0.039-0.125-0.082-0.264-0.199-0.437-0.515-0.212-0.389-0.212-0.908t0.212-0.899q0.182-0.32 0.45-0.506 0.052-0.035 0.108-0.069 0.134-0.078 0.285-0.125 0.216-0.069 0.458-0.069 0.199 0 0.385 0.048 0.195 0.052 0.376 0.156 0.099 0.056 0.186 0.13 0.225 0.177 0.372 0.45zM77.293 18.703q0.208 0.381 0.208 0.904 0 0.532-0.208 0.912-0.147 0.264-0.363 0.441-0.091 0.078-0.199 0.138-0.177 0.104-0.372 0.156-0.186 0.048-0.385 0.048-0.164 0-0.32-0.039-0.221-0.048-0.424-0.169-0.061-0.039-0.121-0.082-0.264-0.199-0.437-0.515-0.212-0.389-0.212-0.908t0.212-0.899q0.177-0.32 0.45-0.506 0.052-0.035 0.104-0.069 0.138-0.078 0.29-0.125 0.216-0.069 0.458-0.069 0.199 0 0.385 0.048 0.195 0.052 0.372 0.156 0.104 0.056 0.19 0.13 0.225 0.177 0.372 0.45z"></path>
</symbol>
</defs>
</svg>
