<svg aria-hidden="true" style="position: absolute; width: 0; height: 0; overflow: hidden;" version="1.1" xmlns="http://www.w3.org/2000/svg" xmlns:xlink="http://www.w3.org/1999/xlink">
<defs>
<symbol id="icon-logo" viewBox="0 0 83 32">
<path fill="#d68240" style="fill: var(--color1, #d68240)" d="M6.095 0.381h13.714c3.366 0 6.095 2.729 6.095 6.095v19.048c0 3.366-2.729 6.095-6.095 6.095h-13.714c-3.366 0-6.095-2.729-6.095-6.095v-19.048c0-3.366 2.729-6.095 6.095-6.095z"></path>
<path fill="#fff" style="fill: var(--color2, #fff)" d="M18.172 6.536c0.397 0 0.691 0.017 0.881 0.052 0.207 0.017 0.432 0.095 0.674 0.233 0.259 0.138 0.44 0.371 0.544 0.699s0.155 0.769 0.155 1.321c0 0.553-0.052 0.993-0.155 1.321s-0.285 0.561-0.544 0.699c-0.259 0.121-0.492 0.199-0.699 0.233-0.19 0.017-0.492 0.026-0.907 0.026h-7.927v2.616h5.103c0.414 0 0.717 0.017 0.907 0.052 0.207 0.017 0.44 0.095 0.699 0.233 0.449 0.259 0.674 0.941 0.674 2.046 0 1.209-0.328 1.926-0.984 2.15-0.276 0.086-0.717 0.13-1.321 0.13h-5.077v4.896c0 0.414-0.017 0.717-0.052 0.907-0.017 0.19-0.029 0.403-0.236 0.611-0.072 0.072-0.938 0-1.256 0-1.209 0-1.917-0.328-2.124-0.984-0.104-0.276-0.155-0.717-0.155-1.321v-12.879c0-0.881 0.164-1.477 0.492-1.787 0.328-0.328 0.95-0.492 1.865-0.492l9.445-0.762z"></path>
<path fill="#d68240" style="fill: var(--color1, #d68240)" d="M40.762 6.095c2.105 0-0.802 0.979 1.865 3.596 1.55 1.522 2.325 3.413 2.325 5.675 0 2.247-0.739 4.167-2.219 5.76-1.479 1.579-3.3 2.368-5.461 2.368s-4.004-0.782-5.525-2.347c-1.508-1.564-2.261-3.428-2.261-5.589 0-1.18 0.213-2.283 0.64-3.307 0.427-1.038 0.996-1.906 1.707-2.603s1.529-1.244 2.453-1.643c0.925-0.398 5.495-1.911 6.476-1.911zM33.262 15.451c0 1.266 0.405 2.297 1.216 3.093 0.825 0.782 1.742 1.173 2.752 1.173s1.92-0.384 2.731-1.152 1.216-1.799 1.216-3.093c0-1.294-0.412-2.332-1.237-3.115-0.811-0.782-1.721-1.173-2.731-1.173s-1.92 0.398-2.731 1.195c-0.811 0.782-1.216 1.806-1.216 3.072z"></path>
<path fill="#d68240" style="fill: var(--color1, #d68240)" d="M54.113 7.409c2.105 0 3.932 0.761 5.483 2.283s2.325 3.413 2.325 5.675c0 2.247-0.74 4.167-2.219 5.76-1.479 1.579-3.3 2.368-5.461 2.368s-4.004-0.782-5.525-2.347c-1.508-1.564-2.261-3.428-2.261-5.589 0-1.18 0.213-2.283 0.64-3.307 0.427-1.038 0.995-1.906 1.707-2.603s1.529-1.244 2.453-1.643c0.924-0.398 1.877-0.597 2.859-0.597zM50.23 15.451c0 1.266 0.405 2.297 1.216 3.093 0.825 0.782 1.742 1.173 2.752 1.173s1.92-0.384 2.731-1.152 1.216-1.799 1.216-3.093c0-1.294-0.413-2.332-1.237-3.115-0.811-0.782-1.721-1.173-2.731-1.173s-1.92 0.398-2.731 1.195c-0.811 0.782-1.216 1.806-1.216 3.072z"></path>
<path fill="#d68240" style="fill: var(--color1, #d68240)" d="M65.641 7.58l3.947 0.021c2.062 0 3.876 0.747 5.44 2.24 1.565 1.479 2.347 3.307 2.347 5.483 0 2.162-0.768 4.018-2.304 5.568-1.522 1.55-3.371 2.325-5.547 2.325h-3.904c-0.868 0-1.408-0.178-1.621-0.533-0.171-0.299-0.256-0.754-0.256-1.365v-11.861c0-0.341 0.007-0.59 0.021-0.747 0.028-0.156 0.1-0.341 0.213-0.555 0.199-0.384 0.754-0.576 1.664-0.576zM69.588 19.441c1.024 0 1.948-0.377 2.773-1.131 0.825-0.768 1.237-1.728 1.237-2.88s-0.405-2.112-1.216-2.88c-0.796-0.782-1.735-1.173-2.816-1.173h-2.048v8.064h2.069z"></path>
<path fill="#d68240" style="fill: var(--color1, #d68240)" d="M79.19 9.478c0-0.327 0.007-0.569 0.021-0.725 0.028-0.171 0.1-0.363 0.213-0.576 0.199-0.384 0.754-0.576 1.664-0.576 0.996 0 1.586 0.263 1.771 0.789 0.071 0.242 0.107 0.612 0.107 1.109v11.861c0 0.341-0.014 0.59-0.043 0.747-0.014 0.157-0.078 0.341-0.192 0.555-0.199 0.384-0.754 0.576-1.664 0.576-0.996 0-1.579-0.27-1.749-0.811-0.085-0.227-0.128-0.59-0.128-1.088v-11.861z"></path>
</symbol>
<symbol id="icon-fb" viewBox="0 0 32 32">
<path fill="#fff" style="fill: var(--color2, #fff)" d="M32 16c0 8.837-7.163 16-16 16s-16-7.163-16-16c0-8.837 7.163-16 16-16s16 7.163 16 16z"></path>
<path fill="#d68240" style="fill: var(--color1, #d68240)" d="M17.217 24.819v-8.102h2.857l0.428-3.158h-3.284v-2.016c0-0.914 0.267-1.537 1.644-1.537l1.756-0.001v-2.824c-0.304-0.038-1.346-0.124-2.559-0.124-2.532 0-4.266 1.471-4.266 4.174v2.329h-2.864v3.158h2.864v8.102l3.425 0z"></path>
</symbol>
<symbol id="icon-in" viewBox="0 0 32 32">
<path fill="#fff" style="fill: var(--color2, #fff)" d="M32 16c0 8.837-7.163 16-16 16s-16-7.163-16-16c0-8.837 7.163-16 16-16s16 7.163 16 16z"></path>
<path fill="#d68240" style="fill: var(--color1, #d68240)" d="M7.505 10.111c0-0.57 0.2-1.040 0.6-1.41s0.92-0.555 1.56-0.555c0.629 0 1.137 0.182 1.526 0.547 0.4 0.376 0.6 0.866 0.6 1.47 0 0.547-0.194 1.002-0.583 1.367-0.4 0.376-0.926 0.564-1.577 0.564h-0.017c-0.629 0-1.137-0.188-1.526-0.564s-0.583-0.849-0.583-1.418zM7.727 25.063v-11.415h3.806v11.415h-3.806zM13.643 25.063h3.806v-6.374c0-0.399 0.046-0.706 0.137-0.923 0.16-0.387 0.403-0.715 0.729-0.983s0.734-0.402 1.226-0.402c1.28 0 1.92 0.86 1.92 2.58v6.1h3.806v-6.545c0-1.686-0.4-2.965-1.2-3.836s-1.857-1.307-3.172-1.307c-1.475 0-2.623 0.632-3.446 1.897v0.034h-0.017l0.017-0.034v-1.623h-3.806c0.023 0.365 0.034 1.498 0.034 3.4s-0.011 4.574-0.034 8.014z"></path>
</symbol>
<symbol id="icon-inst" viewBox="0 0 32 32">
<path fill="#fff" style="fill: var(--color2, #fff)" d="M32 16c0 8.837-7.163 16-16 16s-16-7.163-16-16c0-8.837 7.163-16 16-16s16 7.163 16 16z"></path>
<path fill="#d68240" style="fill: var(--color1, #d68240)" d="M7.505 15.938c0-3.548 0-5.322 0.845-6.599 0.378-0.571 0.866-1.059 1.437-1.437 1.278-0.845 3.052-0.845 6.599-0.845s5.322 0 6.599 0.845c0.571 0.377 1.059 0.866 1.437 1.437 0.845 1.278 0.845 3.052 0.845 6.599s0 5.322-0.845 6.599c-0.378 0.571-0.866 1.059-1.437 1.437-1.278 0.845-3.052 0.845-6.599 0.845s-5.322 0-6.599-0.845c-0.571-0.377-1.059-0.866-1.437-1.437-0.845-1.278-0.845-3.052-0.845-6.599zM20.984 15.938c0 2.539-2.059 4.598-4.598 4.598s-4.598-2.059-4.598-4.598c0-2.539 2.059-4.598 4.598-4.598s4.598 2.059 4.598 4.598zM16.386 18.98c1.68 0 3.042-1.362 3.042-3.042s-1.362-3.042-3.042-3.042c-1.68 0-3.042 1.362-3.042 3.042s1.362 3.042 3.042 3.042zM21.166 12.189c0.597 0 1.080-0.484 1.080-1.080s-0.484-1.080-1.080-1.080c-0.597 0-1.080 0.484-1.080 1.080s0.484 1.080 1.080 1.080z"></path>
</symbol>
<symbol id="icon-tvit" viewBox="0 0 32 32">
<path fill="#fff" style="fill: var(--color2, #fff)" d="M32 16c0 8.837-7.163 16-16 16s-16-7.163-16-16c0-8.837 7.163-16 16-16s16 7.163 16 16z"></path>
<path fill="#d68240" style="fill: var(--color1, #d68240)" d="M19.374 8.762v-0.003h0.833l0.304 0.061c0.203 0.039 0.387 0.091 0.553 0.155s0.326 0.139 0.481 0.224c0.155 0.085 0.295 0.172 0.421 0.261 0.125 0.087 0.237 0.18 0.336 0.278 0.098 0.099 0.251 0.125 0.46 0.077s0.432-0.115 0.673-0.2c0.24-0.085 0.478-0.181 0.713-0.288s0.378-0.174 0.429-0.203c0.050-0.030 0.077-0.046 0.080-0.048l0.003-0.005 0.032-0.016 0.016-0.008 0.016-0.008 0.003-0.005 0.005-0.003 0.005-0.003 0.003-0.005 0.016-0.005 0.016-0.003-0.003 0.024-0.005 0.024-0.016 0.048-0.008 0.016-0.008 0.016-0.008 0.024c-0.005 0.016-0.011 0.037-0.016 0.064s-0.056 0.133-0.152 0.32c-0.096 0.187-0.216 0.376-0.36 0.568s-0.273 0.337-0.388 0.435c-0.115 0.099-0.192 0.168-0.229 0.208-0.037 0.041-0.083 0.078-0.136 0.112l-0.080 0.053-0.032 0.016-0.003 0.005-0.010 0.006-0.003 0.005-0.032 0.016-0.003 0.005-0.005 0.003-0.005 0.003-0.006 0.010-0.010 0.006-0.003 0.005h0.080l0.448-0.096c0.299-0.064 0.585-0.141 0.857-0.232l0.505-0.168 0.064-0.032 0.032-0.005 0.032-0.003v0.032l-0.008 0.003-0.008 0.005-0.003 0.005-0.005 0.003-0.005 0.003-0.003 0.005-0.003 0.005-0.005 0.003-0.005 0.003-0.006 0.010-0.005 0.003-0.016 0.032-0.005 0.003c-0.002 0.003-0.070 0.094-0.203 0.272-0.133 0.179-0.206 0.27-0.216 0.272-0.011 0.003-0.026 0.019-0.045 0.048-0.018 0.030-0.131 0.149-0.34 0.357s-0.412 0.393-0.612 0.555c-0.201 0.163-0.302 0.364-0.304 0.601-0.003 0.237-0.016 0.504-0.037 0.803s-0.061 0.621-0.12 0.968c-0.059 0.347-0.149 0.738-0.272 1.176s-0.272 0.864-0.448 1.28c-0.176 0.416-0.36 0.789-0.553 1.12s-0.368 0.61-0.529 0.84c-0.16 0.229-0.323 0.445-0.488 0.648s-0.375 0.431-0.628 0.685c-0.254 0.253-0.393 0.391-0.416 0.416-0.025 0.023-0.129 0.111-0.314 0.262-0.184 0.152-0.381 0.305-0.593 0.457-0.21 0.151-0.404 0.278-0.58 0.379s-0.389 0.217-0.637 0.347c-0.248 0.131-0.516 0.253-0.804 0.365s-0.593 0.216-0.913 0.312c-0.32 0.096-0.63 0.171-0.929 0.224s-0.638 0.099-1.017 0.136l-0.569 0.056v0.008h-1.041v-0.008l-0.136-0.008c-0.091-0.005-0.165-0.011-0.224-0.016s-0.28-0.035-0.665-0.088c-0.384-0.053-0.686-0.107-0.905-0.16s-0.545-0.155-0.977-0.304c-0.432-0.149-0.802-0.3-1.11-0.453-0.306-0.151-0.499-0.247-0.577-0.288-0.077-0.039-0.163-0.088-0.259-0.147l-0.144-0.088-0.003-0.005-0.005-0.003-0.005-0.003-0.003-0.005-0.032-0.016-0.003-0.005-0.005-0.003-0.005-0.003-0.003-0.005-0.003-0.005-0.005-0.003h-0.008v-0.032l0.016 0.003 0.016 0.005 0.072 0.008c0.048 0.005 0.179 0.013 0.392 0.024s0.44 0.011 0.681 0 0.486-0.035 0.737-0.072c0.251-0.037 0.547-0.101 0.889-0.192s0.656-0.198 0.942-0.323c0.285-0.126 0.488-0.22 0.609-0.282 0.12-0.061 0.302-0.174 0.548-0.339l0.368-0.248 0.003-0.005 0.005-0.003 0.005-0.003 0.006-0.010 0.010-0.006 0.003-0.005 0.016-0.005 0.016-0.003 0.003-0.016 0.005-0.016 0.005-0.003 0.003-0.005-0.128-0.008c-0.085-0.005-0.168-0.011-0.248-0.016s-0.206-0.029-0.376-0.072-0.355-0.107-0.553-0.192c-0.198-0.085-0.39-0.187-0.577-0.304s-0.322-0.215-0.405-0.293c-0.082-0.077-0.189-0.186-0.32-0.326-0.13-0.142-0.243-0.287-0.34-0.437s-0.188-0.321-0.275-0.517l-0.133-0.291-0.008-0.024-0.008-0.024-0.005-0.016-0.003-0.016 0.024 0.003 0.024 0.005 0.176 0.024c0.117 0.016 0.302 0.021 0.553 0.016s0.424-0.016 0.521-0.032c0.096-0.016 0.155-0.027 0.176-0.032l0.032-0.008 0.080-0.016 0.003-0.005 0.005-0.003 0.005-0.003 0.003-0.005-0.16-0.040c-0.021-0.005-0.059-0.016-0.112-0.032s-0.198-0.075-0.432-0.176c-0.235-0.101-0.422-0.2-0.561-0.296s-0.272-0.202-0.397-0.315c-0.125-0.115-0.262-0.263-0.412-0.445s-0.283-0.392-0.4-0.632c-0.117-0.24-0.206-0.469-0.264-0.688-0.058-0.217-0.097-0.439-0.115-0.664l-0.029-0.336 0.016 0.003 0.016 0.005 0.064 0.032 0.248 0.112c0.166 0.075 0.371 0.139 0.617 0.192s0.392 0.083 0.44 0.088l0.072 0.008h0.144l-0.003-0.005-0.005-0.003-0.005-0.003-0.003-0.005-0.003-0.005-0.005-0.003-0.005-0.003-0.003-0.005-0.032-0.016-0.003-0.005-0.005-0.003-0.005-0.003-0.003-0.005-0.032-0.016-0.003-0.005c-0.003-0.002-0.049-0.036-0.138-0.102-0.088-0.067-0.179-0.154-0.276-0.261s-0.192-0.219-0.288-0.336c-0.096-0.118-0.182-0.243-0.256-0.376s-0.154-0.303-0.237-0.509c-0.082-0.205-0.145-0.411-0.187-0.619s-0.067-0.413-0.072-0.616c-0.005-0.203 0-0.376 0.016-0.52s0.048-0.307 0.096-0.488c0.048-0.181 0.117-0.373 0.208-0.576l0.136-0.304 0.008-0.024 0.008-0.024 0.005-0.003 0.003-0.005 0.003-0.005 0.005-0.003 0.005 0.003 0.006 0.010 0.010 0.006 0.006 0.010 0.005 0.003 0.008 0.016 0.008 0.016 0.005 0.003 0.003 0.005 0.216 0.24c0.144 0.16 0.315 0.339 0.513 0.536s0.307 0.3 0.328 0.307c0.021 0.009 0.048 0.033 0.080 0.074 0.032 0.039 0.139 0.134 0.32 0.283s0.419 0.323 0.713 0.52c0.294 0.197 0.619 0.392 0.977 0.584s0.742 0.365 1.153 0.52c0.411 0.155 0.699 0.256 0.865 0.304s0.448 0.109 0.849 0.184c0.4 0.075 0.702 0.123 0.905 0.144s0.342 0.034 0.416 0.037l0.112 0.003-0.003-0.024-0.005-0.024-0.032-0.2c-0.021-0.133-0.032-0.32-0.032-0.56s0.019-0.461 0.056-0.664c0.037-0.203 0.093-0.408 0.168-0.616s0.148-0.375 0.219-0.501c0.073-0.125 0.168-0.267 0.285-0.427s0.27-0.325 0.457-0.496c0.187-0.171 0.4-0.323 0.641-0.456s0.462-0.235 0.665-0.304c0.203-0.069 0.374-0.115 0.513-0.136s0.208-0.034 0.208-0.037z"></path>
</symbol>
</defs>
</svg>
