<svg aria-hidden="true" style="position: absolute; width: 0; height: 0; overflow: hidden;" version="1.1" xmlns="http://www.w3.org/2000/svg" xmlns:xlink="http://www.w3.org/1999/xlink">
<defs>
<symbol id="icon-tg" viewBox="0 0 32 32">
<path fill="#57b7eb" style="fill: var(--color1, #57b7eb)" d="M29 16c0 7.18-5.82 13-13 13s-13-5.82-13-13c0-7.18 5.82-13 13-13s13 5.82 13 13z"></path>
<path fill="#4891d3" style="fill: var(--color2, #4891d3)" d="M7.323 6.323c-2.066 2.302-3.323 5.343-3.323 8.677 0 7.175 5.825 13 13 13 3.334 0 6.375-1.258 8.677-3.323-2.381 2.653-5.835 4.323-9.677 4.323-7.175 0-13-5.825-13-13 0-3.841 1.67-7.296 4.323-9.677z"></path>
<path fill="#f9f6f9" style="fill: var(--color3, #f9f6f9)" d="M7.349 16.905c-0.203-0.061-0.346-0.243-0.356-0.454s0.114-0.407 0.309-0.487c3.332-1.372 12.097-4.981 14.854-6.117 0.169-0.069 0.362-0.041 0.505 0.073s0.21 0.297 0.178 0.477c-0.461 2.582-1.785 9.994-2.208 12.364-0.029 0.165-0.139 0.303-0.293 0.37s-0.329 0.053-0.471-0.038c-1.375-0.884-4.623-2.972-5.87-3.773-0.124-0.080-0.207-0.21-0.226-0.357s0.027-0.294 0.127-0.402c1.267-1.382 5.099-5.563 5.099-5.563s-6.591 4.12-7.808 4.88c-0.122 0.076-0.271 0.096-0.409 0.055-0.585-0.175-2.235-0.671-3.434-1.030z"></path>
<path fill="#000" style="fill: var(--color4, #000)" d="M17.573 14.187l-3.856 4.207c-0.149 0.163-0.22 0.384-0.191 0.603s0.152 0.415 0.338 0.535c1.246 0.802 4.494 2.89 5.87 3.774 0.211 0.136 0.476 0.157 0.706 0.056s0.395-0.309 0.439-0.556c0.423-2.37 1.747-9.783 2.208-12.364 0.048-0.27-0.055-0.543-0.268-0.716s-0.503-0.214-0.756-0.11c-2.757 1.135-11.522 4.745-14.854 6.117-0.293 0.121-0.479 0.413-0.463 0.73s0.229 0.59 0.534 0.681v0c1.198 0.36 2.848 0.855 3.434 1.030 0.207 0.062 0.43 0.032 0.613-0.082l6.248-3.905zM7.421 16.666c-0.101-0.030-0.173-0.122-0.178-0.227s0.056-0.203 0.154-0.244c3.332-1.372 12.097-4.981 14.854-6.117 0.084-0.034 0.181-0.021 0.252 0.037s0.105 0.149 0.089 0.239c-0.461 2.582-1.785 9.994-2.208 12.365-0.015 0.082-0.070 0.151-0.146 0.185s-0.165 0.026-0.235-0.019c-1.376-0.884-4.623-2.972-5.87-3.773-0.062-0.040-0.104-0.105-0.113-0.178s0.014-0.146 0.064-0.201c1.267-1.382 5.099-5.563 5.099-5.563 0.084-0.092 0.087-0.232 0.008-0.329s-0.218-0.118-0.325-0.052c0 0-6.591 4.12-7.808 4.88-0.061 0.038-0.136 0.048-0.204 0.027l-3.434-1.030z"></path>
<path fill="#000" style="fill: var(--color4, #000)" d="M16 2.75c-7.313 0-13.25 5.937-13.25 13.25s5.937 13.25 13.25 13.25c7.313 0 13.25-5.937 13.25-13.25s-5.937-13.25-13.25-13.25zM16 3.25c7.037 0 12.75 5.713 12.75 12.75s-5.713 12.75-12.75 12.75c-7.037 0-12.75-5.713-12.75-12.75s5.713-12.75 12.75-12.75z"></path>
</symbol>
</defs>
</svg>
